<svg version="1.1" xmlns="http://www.w3.org/2000/svg" xmlns:xlink="http://www.w3.org/1999/xlink" x="0px" y="0px" width="16px" height="16px" viewBox="0 0 16 16" enable-background="new 0 0 16 16" xml:space="preserve">
<path fill="#000000" d="M8,0C3.582,0,0,3.582,0,8s3.582,8,8,8s8-3.582,8-8S12.418,0,8,0z M4,6c-0.828,0-1.5-0.672-1.5-1.5S3.172,3,4,3s1.5,0.672,1.5,1.5S4.828,6,4,6z M8,9c-0.828,0-1.5-0.672-1.5-1.5S7.172,6,8,6s1.5,0.672,1.5,1.5S8.828,9,8,9z M12,6c-0.828,0-1.5-0.672-1.5-1.5S11.172,3,12,3s1.5,0.672,1.5,1.5S12.828,6,12,6z M8,13c-0.552,0-1-0.448-1-1s0.448-1,1-1s1,0.448,1,1S8.552,13,8,13z M11.5,10.5c0,0.276-0.224,0.5-0.5,0.5H5c-0.276,0-0.5-0.224-0.5-0.5s0.224-0.5,0.5-0.5h6C11.276,10,11.5,10.224,11.5,10.5z"/>
</svg> 